<svg width="72" height="64" viewBox="0 0 72 64" fill="none" xmlns="http://www.w3.org/2000/svg">
<g clip-path="url(#clip0_61_182)">
<path d="M6.38823 34.965L42.7508 30.612L45.7447 55.6145L9.38211 59.9675C9.12827 60.0006 8.87039 59.9827 8.62357 59.9148C8.37676 59.8469 8.14598 59.7305 7.94476 59.5722C7.74354 59.414 7.57595 59.2172 7.45178 58.9934C7.3276 58.7695 7.24936 58.5231 7.22164 58.2686L4.65728 37.1127C4.60506 36.5989 4.75751 36.0853 5.08155 35.6833C5.4056 35.2812 5.87512 35.0231 6.38823 34.965Z" fill="#EDEDED"/>
<path d="M55.4251 29.0991C55.6794 29.0651 55.9379 29.0823 56.1855 29.1498C56.4331 29.2172 56.6646 29.3335 56.8666 29.4918C57.0685 29.6502 57.2367 29.8473 57.3613 30.0716C57.4859 30.2959 57.5643 30.5429 57.592 30.7979L60.1179 51.9539C60.1509 52.2077 60.133 52.4656 60.0651 52.7125C59.9972 52.9593 59.8808 53.19 59.7225 53.3913C59.5643 53.5925 59.3675 53.7601 59.1437 53.8843C58.9198 54.0084 58.6734 54.0867 58.4189 54.1144L45.7446 55.6338L42.7507 30.6313L55.4251 29.0991Z" fill="#DF314B"/>
<path d="M40.5201 36.4182L26.0388 38.1527L26.4551 41.6282L40.9364 39.8938L40.5201 36.4182Z" fill="#D0D2D3"/>
<path d="M41.0912 41.208L26.6099 42.9424L27.0261 46.4179L41.5074 44.6835L41.0912 41.208Z" fill="#D0D2D3"/>
<path d="M41.6556 45.9283L27.1743 47.6628L27.5906 51.1383L42.0719 49.4038L41.6556 45.9283Z" fill="#D0D2D3"/>
<path d="M24.1085 38.4136L9.6272 40.1481L10.0435 43.6236L24.5248 41.8891L24.1085 38.4136Z" fill="#D0D2D3"/>
<path d="M24.6859 43.1962L10.2046 44.9306L10.6209 48.4061L25.1022 46.6717L24.6859 43.1962Z" fill="#D0D2D3"/>
<path d="M25.2508 47.9229L10.7695 49.6573L11.1858 53.1329L25.6671 51.3984L25.2508 47.9229Z" fill="#D0D2D3"/>
<path d="M45.5139 42.953L46.0909 42.6004L46.3281 42.453C46.3082 42.3619 46.2932 42.2699 46.2832 42.1773V42.1324C46.2878 42.0901 46.3084 42.051 46.3409 42.0234C46.3737 42.001 46.4108 41.9857 46.4499 41.9785C46.4945 41.9721 46.5399 41.9721 46.5845 41.9785L46.6871 42.0106C46.694 42.0702 46.694 42.1305 46.6871 42.1901L47.5846 41.6452V41.6067V41.549C47.5846 41.4465 47.5397 41.3503 47.5205 41.2669C47.4984 41.1811 47.4876 41.0927 47.4885 41.0041C47.4985 40.9675 47.5213 40.9357 47.5526 40.9143L47.6167 40.8759C47.7427 40.8137 47.8763 40.7684 48.0142 40.7413L48.2514 40.6964C48.4416 40.6559 48.6381 40.6559 48.8283 40.6964L48.8732 40.7284C48.8732 40.7284 48.8732 40.7284 48.8732 40.7605C48.8774 40.7838 48.8774 40.8077 48.8732 40.831L49.9118 40.1899L50.0721 40.0937C50.0721 39.7476 50.04 39.4206 50.04 39.1129C50.0432 39.0809 50.0432 39.0487 50.04 39.0167C50.0455 38.7185 50.0691 38.421 50.1105 38.1256V38.0038C50.1105 37.8692 50.1554 37.741 50.181 37.6256V37.5486C50.2139 37.4223 50.2546 37.2981 50.3029 37.1768C50.3029 37.1319 50.3349 37.0934 50.3541 37.055C50.4079 36.9334 50.4917 36.8275 50.5978 36.7473H50.649H50.7003C50.8478 36.7473 51.0145 36.837 51.1875 37.0486L51.2453 37.1191C51.2824 37.1684 51.3166 37.2197 51.3478 37.273C51.4077 37.3609 51.4613 37.453 51.5081 37.5486C51.6121 37.7569 51.7042 37.9709 51.7838 38.1897C51.8799 38.4397 51.9761 38.7154 52.0594 39.0167C52.0714 39.0709 52.0864 39.1244 52.1043 39.177C52.162 39.395 52.2133 39.6193 52.2582 39.8565L52.4249 39.9014L53.8545 40.3053C53.8545 40.3053 53.8545 40.2476 53.8545 40.2284C53.8486 40.1773 53.8486 40.1256 53.8545 40.0745C53.9122 39.9719 54.2391 39.8886 54.5661 39.8565H55.0149C55.1431 39.8565 55.2392 39.9078 55.2649 39.9591C55.2964 40.1022 55.3115 40.2485 55.3098 40.3951C55.3132 40.4334 55.3132 40.4721 55.3098 40.5105V40.6387C55.3129 40.6707 55.3129 40.7029 55.3098 40.7348L56.015 40.94C56.0125 40.9016 56.0125 40.863 56.015 40.8246C56.015 40.6387 56.3163 40.6323 56.4188 40.6964C56.4188 40.6964 56.4509 40.7733 56.4637 40.8759V40.94C56.4671 40.9869 56.4671 41.0341 56.4637 41.081L57.3933 41.3503L57.5151 42.2414L56.3804 42.3312L55.2392 42.4145C55.2424 42.4314 55.2424 42.4488 55.2392 42.4658C55.2392 42.4658 55.2392 42.5107 55.2392 42.5299C55.2234 42.6425 55.1999 42.7539 55.1687 42.8633C55.156 42.9025 55.141 42.9411 55.1238 42.9786C55.111 43.0104 55.0913 43.0388 55.0662 43.062H55.0277C54.9059 43.062 54.752 42.8761 54.5981 42.5684L54.5469 42.4594L53.5083 42.5427L52.5018 42.6196C52.5403 43.748 52.5018 44.9789 52.4697 45.9725C52.4697 46.0431 52.4697 46.1136 52.4697 46.1777C52.4697 46.2418 52.4697 46.3187 52.4697 46.3828V46.2482V46.12L54.2263 47.0816L54.1237 48.0753L52.3031 47.6907V47.5753C52.3031 47.6522 52.303 47.7227 52.2518 47.774C52.2422 47.8164 52.2272 47.8574 52.2069 47.8958C52.2069 47.8958 52.2069 47.8958 52.1684 47.8958C52.0795 47.8149 52.0113 47.7137 51.9697 47.6009V47.633L52.0017 47.7099L50.5144 48.5626L50.149 47.633L51.5786 46.2354L51.6235 46.3444L51.6812 46.479C51.3927 45.6777 51.0722 44.6263 50.7965 43.5877C50.7324 43.3505 50.6683 43.1069 50.617 42.8761L48.8989 43.2095C48.9019 43.2543 48.9019 43.2992 48.8989 43.3441C48.8756 43.4888 48.8369 43.6307 48.7835 43.7672C48.7322 43.8762 48.6809 43.9403 48.6168 43.9467C48.5527 43.9531 48.5399 43.9467 48.495 43.8762C48.4011 43.7474 48.3235 43.6074 48.2642 43.4595C48.2616 43.4382 48.2616 43.4167 48.2642 43.3954V43.3505L45.7383 43.8441L45.5139 42.953Z" fill="#A62538"/>
<path d="M58.1824 51.4432L46.7056 52.8179L46.8596 54.1037L58.3364 52.7291L58.1824 51.4432Z" fill="#A62538"/>
<path d="M55.6882 30.6615L44.2114 32.0361L44.5583 34.9324L56.0351 33.5577L55.6882 30.6615Z" fill="#A62538"/>
<path d="M1.86207 23.2716L34.2499 6.18011L46.0268 28.4516L13.6389 45.5366C13.4139 45.659 13.1667 45.7353 12.9118 45.7609C12.657 45.7864 12.3996 45.7609 12.1547 45.6856C11.9099 45.6104 11.6826 45.487 11.4861 45.3227C11.2896 45.1584 11.1279 44.9565 11.0104 44.7288L1.07354 25.8936C0.951425 25.6701 0.874935 25.4245 0.848512 25.1711C0.822088 24.9178 0.846248 24.6617 0.919609 24.4177C0.992971 24.1738 1.11407 23.9469 1.27586 23.7501C1.43765 23.5533 1.6369 23.3907 1.86207 23.2716Z" fill="white"/>
<path d="M45.5396 0.192326C45.9969 -0.0439601 46.5288 -0.0910287 47.0205 0.0612828C47.5122 0.213594 47.9244 0.553073 48.168 1.0065L58.1049 19.8353C58.2271 20.0607 58.303 20.3082 58.3281 20.5634C58.3533 20.8185 58.3271 21.0761 58.2513 21.321C58.1754 21.5659 58.0514 21.7931 57.8864 21.9894C57.7215 22.1856 57.5189 22.3469 57.2908 22.4638L46.0268 28.4516L34.2756 6.1801L45.5396 0.192326Z" fill="url(#paint0_linear_61_182)"/>
<path d="M34.2399 12.41L21.3408 19.2166L22.9744 22.3124L35.8735 15.5058L34.2399 12.41Z" fill="#D0D2D3"/>
<path d="M36.4865 16.6727L23.5874 23.4793L25.221 26.5751L38.1201 19.7684L36.4865 16.6727Z" fill="#D0D2D3"/>
<path d="M38.7108 20.8846L25.8118 27.6913L27.4454 30.7871L40.3444 23.9804L38.7108 20.8846Z" fill="#D0D2D3"/>
<path d="M19.6398 20.1455L6.74072 26.9522L8.37432 30.0479L21.2734 23.2413L19.6398 20.1455Z" fill="#D0D2D3"/>
<path d="M21.8864 24.4018L8.9873 31.2085L10.6209 34.3042L23.52 27.4976L21.8864 24.4018Z" fill="#D0D2D3"/>
<path d="M24.1078 28.6145L11.2087 35.4212L12.8423 38.517L25.7414 31.7103L24.1078 28.6145Z" fill="#D0D2D3"/>
<path d="M41.2505 16.7068L41.6608 16.1683L41.8275 15.9503C41.7757 15.872 41.7286 15.7906 41.6864 15.7067V15.6683C41.6704 15.6292 41.6704 15.5855 41.6864 15.5464C41.7081 15.5109 41.7391 15.482 41.7762 15.4631C41.8121 15.4407 41.8509 15.4235 41.8916 15.4118C41.9277 15.4058 41.9645 15.4058 42.0006 15.4118C42.0343 15.463 42.0643 15.5166 42.0903 15.5721L42.7314 14.7451L42.6994 14.6938C42.6417 14.6104 42.584 14.5271 42.5455 14.4566C42.4915 14.3865 42.4482 14.3087 42.4173 14.2258C42.4037 14.193 42.4037 14.1561 42.4173 14.1232L42.4622 14.0591C42.5579 13.9562 42.668 13.8676 42.7891 13.7963L42.9943 13.668C43.1583 13.561 43.3447 13.4931 43.5392 13.4693H43.5841L43.6225 13.527L44.3662 12.5654L44.4752 12.4179C44.3277 12.1038 44.2059 11.7768 44.0969 11.5076V11.4242C43.997 11.1424 43.9114 10.8557 43.8405 10.5652C43.8381 10.5246 43.8381 10.4839 43.8405 10.4434C43.8084 10.3087 43.7892 10.1869 43.77 10.0651C43.7508 9.94331 43.77 10.0138 43.77 9.98819C43.7578 9.85598 43.7578 9.72293 43.77 9.59072C43.767 9.54803 43.767 9.50518 43.77 9.46249C43.7721 9.33006 43.8121 9.20102 43.8854 9.09067L43.9238 9.04579L43.9687 9.01374C44.0969 8.94322 44.2893 9.01373 44.5329 9.12271L44.6034 9.16759L44.7637 9.27659C44.8483 9.33858 44.9296 9.40491 45.0073 9.47532C45.1749 9.62139 45.3334 9.77768 45.4817 9.94331C45.6612 10.142 45.8471 10.3664 46.033 10.5844L46.1356 10.719C46.2638 10.905 46.3984 11.0973 46.5267 11.3024H46.5651H46.7382L48.2127 11.1742L48.1743 11.1037C48.1488 11.0618 48.1293 11.0164 48.1166 10.9691C48.1166 10.8537 48.4051 10.6549 48.7 10.5139L48.8089 10.4626L49.0205 10.3793H49.1231C49.2449 10.3472 49.3475 10.3408 49.3859 10.3793C49.467 10.4992 49.5337 10.6283 49.5847 10.7639C49.5847 10.796 49.6167 10.8344 49.6295 10.8729C49.6424 10.9114 49.6295 10.9498 49.6808 10.9947C49.6953 11.0231 49.7061 11.0533 49.7129 11.0844L50.4501 11.0139C50.4282 10.9847 50.411 10.9523 50.3989 10.9178C50.354 10.7447 50.6168 10.6357 50.7322 10.6549C50.7322 10.6549 50.7899 10.719 50.8348 10.8088V10.8665C50.8563 10.9103 50.8756 10.9553 50.8925 11.0011L51.8541 10.9178L52.2901 11.7063L51.2579 12.1935L50.2257 12.6872C50.2295 12.7019 50.2295 12.7173 50.2257 12.7321C50.2293 12.7533 50.2293 12.7749 50.2257 12.7962C50.2494 12.9062 50.2665 13.0175 50.277 13.1295C50.2835 13.172 50.2835 13.2153 50.277 13.2578C50.2852 13.2893 50.2852 13.3224 50.277 13.3539C50.1681 13.418 49.9501 13.277 49.7001 13.0462L49.6103 12.9629L48.6679 13.418L47.7576 13.8475C48.1935 14.8861 48.623 16.0465 48.9243 16.9889C48.9243 17.0594 48.9692 17.1235 48.9884 17.1876L49.0526 17.38L49.0141 17.2517L48.982 17.1235L50.963 17.3992L51.2258 18.3608L49.3859 18.6493L49.3539 18.5403C49.3689 18.608 49.3796 18.6765 49.3859 18.7455C49.3902 18.7881 49.3902 18.8311 49.3859 18.8737V18.9122C49.3346 18.9122 49.2321 18.8352 49.0974 18.7134L49.1551 18.7775L47.9178 20.1751L47.2767 19.4314L48.1102 17.6172L48.1871 17.7005L48.2897 17.8095C47.7319 17.1684 47.0588 16.2965 46.4241 15.4246L46.001 14.822L44.52 15.7516C44.5231 15.7964 44.5231 15.8414 44.52 15.8862C44.5527 16.0291 44.5657 16.1758 44.5585 16.3222C44.5585 16.4376 44.5265 16.5209 44.4688 16.5465C44.4111 16.5722 44.3918 16.5465 44.3341 16.5465C44.1996 16.4626 44.0768 16.3613 43.9687 16.2452L43.9238 16.2004L43.8918 16.1619L41.68 17.5018L41.2505 16.7068Z" fill="#B8812F"/>
<path d="M56.1057 20.1101L45.8828 25.5045L46.4872 26.6498L56.71 21.2554L56.1057 20.1101Z" fill="#B8812F"/>
<path d="M46.3388 1.59696L36.116 6.99142L37.4773 9.57122L47.7001 4.17676L46.3388 1.59696Z" fill="#B8812F"/>
</g>
<defs>
<linearGradient id="paint0_linear_61_182" x1="42.148" y1="4.97253" x2="52.3724" y2="25.4437" gradientUnits="userSpaceOnUse">
<stop offset="0.07" stop-color="#FAAF40"/>
<stop offset="0.53" stop-color="#EBA134"/>
<stop offset="1" stop-color="#E0972B"/>
</linearGradient>
<clipPath id="clip0_61_182">
<rect width="70.3532" height="64" fill="white" transform="translate(0.823486)"/>
</clipPath>
</defs>
</svg>
